<svg width="588" height="457" viewBox="0 0 588 457" fill="none" xmlns="http://www.w3.org/2000/svg">
<path style="mix-blend-mode:multiply" d="M580.751 238.25L535.003 213.298L462.192 285.841H503.438L580.751 238.25Z" fill="url(#paint0_linear_2392_27835)"/>
<path d="M464.093 282.329L334.92 202.819L414.666 153.73L543.843 233.241L464.093 282.329Z" fill="#5652CC"/>
<path d="M534.343 218.998V233.531L459.579 279.551V265.015L534.343 218.998Z" fill="#CED3F8"/>
<path d="M462.192 261.162L333.015 181.652L414.666 131.395L543.839 210.905L462.192 261.162Z" fill="#5652CC"/>
<path d="M462.192 285.841L543.839 235.584L543.843 233.241L464.092 282.329L464.097 262.331L543.843 213.247L543.839 210.905L462.192 261.162V285.841Z" fill="#20196F"/>
<path d="M462.192 285.836L333.019 206.326L333.015 181.652L462.192 261.162V285.836Z" fill="#362E94"/>
<path d="M438.671 252.146L447.796 257.762V271.513L438.671 265.898V252.146Z" fill="#20196F"/>
<path d="M347.415 195.975L356.54 201.59V215.342L347.415 209.727V195.975Z" fill="#20196F"/>
<path style="mix-blend-mode:multiply" d="M530.778 202.866L464.506 243.656C459.299 246.856 463.522 249.454 473.927 249.454C476.509 249.454 479.234 249.293 481.944 249.007L543.841 210.909L530.778 202.871V202.866Z" fill="url(#paint1_linear_2392_27835)"/>
<path d="M463.414 242.397L459.024 245.081L454.045 242.017C453.793 241.126 453.653 240.101 453.653 238.954C453.653 232.55 457.871 224.763 463.074 221.563L362.083 159.397L417.017 125.584L535.112 198.275L463.422 242.401L463.414 242.397Z" fill="#807DFB"/>
<path d="M458.943 240.072C458.943 240.072 523.397 200.4 526.707 198.361C526.707 195.19 526.707 182.612 526.707 179.447C523.397 181.486 458.943 221.153 458.943 221.153C454.708 223.765 451.259 230.126 451.259 235.34C451.259 240.554 454.705 242.674 458.943 240.068V240.072Z" fill="#CED3F8"/>
<path d="M344.975 148.867L463.074 221.558L535.104 177.219L417.009 104.531L344.975 148.867Z" fill="#807DFB"/>
<path d="M453.648 238.954C453.648 245.358 457.867 247.956 463.07 244.753L535.108 200.413V198.275L463.074 242.615C458.839 245.222 455.394 243.097 455.394 237.888C455.394 232.673 458.839 226.307 463.078 223.701L535.112 179.365V177.227L463.074 221.567C457.871 224.767 453.657 232.558 453.653 238.958L453.648 238.954Z" fill="#20196F"/>
<path d="M453.649 238.954C453.649 232.55 457.867 224.763 463.069 221.563L344.974 148.87C339.776 152.075 335.558 159.866 335.553 166.267C335.553 169.467 336.61 171.719 338.315 172.769L456.41 245.457C454.705 244.406 453.652 242.154 453.652 238.954H453.649Z" fill="url(#paint2_linear_2392_27835)"/>
<path d="M516.953 213.367C516.837 214.749 516.245 218.555 515.969 220.168C511.363 212.56 507.665 209.104 503.046 206.186C504.263 205.434 507.701 203.318 510.345 201.692C514.952 204.521 520.071 210.644 523.269 215.675C521.215 214.693 519.115 213.849 516.949 213.367H516.953Z" fill="#FCBA06"/>
<g style="mix-blend-mode:multiply">
<path d="M513.663 204.193C512.551 203.216 511.435 202.359 510.345 201.692C507.701 203.323 504.263 205.434 503.046 206.186C504.239 206.941 505.371 207.73 506.471 208.618L513.663 204.189V204.193Z" fill="#DAE0F5"/>
</g>
<path d="M477.81 154.046L425.422 186.29L402.269 172.043L454.661 139.795L477.81 154.046Z" fill="#6B67E9"/>
<path d="M440.029 170.887L436.196 169.948L430.993 173.153L432.522 175.512L429.572 177.325L422.521 166.382L425.201 164.73L442.98 169.07L440.029 170.883V170.887ZM427.563 167.828L429.604 171.011L432.714 169.099L427.563 167.832V167.828Z" fill="#F6F6FB"/>
<path d="M439.713 165.968L437.352 164.513L443.676 160.622L446.036 162.076L439.713 165.968Z" fill="#F6F6FB"/>
<path d="M451.931 163.561L450.029 162.392L448.413 153.394L442.125 157.264L439.729 155.788L449.798 149.588L451.715 150.77L453.312 159.734L459.903 155.676L462.32 157.161L451.931 163.557V163.561Z" fill="#F6F6FB"/>
<path d="M422.539 427.637L427.57 430.73L403.349 445.638L371.056 425.759L394.632 411.248L399.663 414.341L382.086 425.162L390.483 430.329L406.075 420.729L411.01 423.767L395.417 433.367L404.322 438.85L422.547 427.632L422.539 427.637Z" fill="#FFD03E"/>
<path style="mix-blend-mode:multiply" d="M282.104 223.128H99.7068V296.235H282.104V223.128Z" fill="url(#paint3_linear_2392_27835)"/>
<path d="M93.977 127.559L89.3228 130.447V136.971C89.9588 137.696 90.7674 138.375 91.7597 138.989C97.2947 142.394 106.272 142.394 111.807 138.989V271.283L179.595 229.558V74.8647L93.977 127.563V127.559Z" fill="#DC8B00"/>
<path d="M93.608 133.186C93.608 133.186 171.525 85.2286 175.043 83.0611C177.785 84.7465 188.654 91.4411 191.392 93.122C187.87 95.2891 109.956 143.248 109.956 143.248C105.446 146.021 98.1102 146.021 93.608 143.248C89.1014 140.47 89.1014 135.959 93.608 133.183V133.186Z" fill="#F1F1F6"/>
<path style="mix-blend-mode:multiply" d="M99.0227 136.519C99.0227 136.519 176.936 88.5609 180.458 86.3934C178.101 84.9427 176.035 83.6712 175.043 83.0611C171.521 85.2286 93.608 133.186 93.608 133.186C89.1014 135.959 89.1014 140.474 93.608 143.251C94.5599 143.836 95.6406 144.292 96.7892 144.63C94.7324 141.984 95.469 138.711 99.0227 136.523V136.519Z" fill="url(#paint4_linear_2392_27835)"/>
<path d="M111.805 293.679V138.981L197.787 86.0606V240.755L111.805 293.679Z" fill="#DC8B00"/>
<path d="M91.7589 138.985C86.224 135.575 86.2206 130.05 91.7589 126.646L177.741 73.7213L179.59 74.8604L93.6079 127.785C89.1022 130.558 89.1022 135.073 93.6079 137.846C98.1145 140.619 105.45 140.619 109.957 137.846L195.934 84.9214L197.783 86.0606L111.802 138.985C106.267 142.389 97.2904 142.389 91.7555 138.985H91.7589Z" fill="#FFD03E"/>
<path d="M91.7581 138.985C97.293 142.389 106.27 142.389 111.805 138.985V293.679C106.27 297.084 97.2896 297.084 91.7581 293.679C88.9932 291.976 87.6086 289.741 87.6086 287.509V132.815C87.6086 135.047 88.9932 137.283 91.7624 138.985H91.7581Z" fill="url(#paint5_linear_2392_27835)"/>
<g style="mix-blend-mode:color-burn">
<path d="M197.783 240.755V168.762L111.805 221.682C106.27 225.092 97.293 225.092 91.7624 221.682C88.9967 219.98 87.6086 217.744 87.6086 215.513V287.505C87.6086 289.736 88.9932 291.972 91.7581 293.675C97.293 297.079 106.27 297.079 111.805 293.675L197.783 240.75V240.755Z" fill="#D1D7F3"/>
</g>
<path d="M133.448 197.942L187.337 164.773V185.607L133.448 218.777V197.942Z" fill="#423EAF"/>
<path d="M145.987 203.817V205.306L140.156 208.895V199.325L145.832 195.83V197.32L141.601 199.927V202.414L145.355 200.101V201.564L141.601 203.877V206.514L145.987 203.813V203.817Z" fill="#CED3F8"/>
<path d="M152.627 194.645C153.079 194.904 153.303 195.561 153.303 196.62V200.805L151.914 201.659V197.695C151.914 197.059 151.791 196.654 151.546 196.479C151.302 196.304 150.954 196.359 150.501 196.637C149.99 196.952 149.585 197.392 149.289 197.95C148.993 198.51 148.845 199.146 148.845 199.858V203.549L147.456 204.402V197.101L148.777 196.287V197.229C149.005 196.752 149.297 196.317 149.646 195.932C149.993 195.545 150.386 195.216 150.822 194.947C151.57 194.486 152.171 194.388 152.622 194.648L152.627 194.645Z" fill="#CED3F8"/>
<path d="M161.016 188.756V194.952C161.016 197.525 159.952 199.466 157.818 200.776C157.25 201.126 156.71 201.369 156.198 201.51C155.685 201.646 155.266 201.646 154.933 201.513L155.553 199.845C155.813 199.952 156.138 199.96 156.538 199.875C156.934 199.789 157.334 199.623 157.743 199.372C158.395 198.97 158.871 198.492 159.176 197.942C159.479 197.392 159.631 196.743 159.631 195.993V195.609C159.395 196.073 159.108 196.492 158.763 196.867C158.423 197.242 158.047 197.554 157.642 197.801C157.078 198.147 156.57 198.313 156.114 198.297C155.658 198.28 155.297 198.088 155.037 197.707C154.773 197.333 154.641 196.799 154.641 196.103C154.641 195.408 154.773 194.717 155.037 194.021C155.302 193.326 155.658 192.694 156.114 192.123C156.57 191.551 157.078 191.09 157.642 190.744C158.071 190.479 158.463 190.326 158.815 190.284C159.167 190.241 159.46 190.322 159.7 190.531V189.563L161.02 188.747L161.016 188.756ZM159.144 194.849C159.479 194.256 159.648 193.646 159.648 193.027C159.648 192.408 159.479 192.024 159.144 191.845C158.807 191.67 158.375 191.747 157.851 192.067C157.318 192.395 156.882 192.857 156.546 193.445C156.21 194.034 156.042 194.635 156.042 195.246C156.042 195.856 156.21 196.265 156.546 196.445C156.882 196.624 157.318 196.551 157.851 196.223C158.375 195.899 158.807 195.438 159.144 194.845V194.849Z" fill="#CED3F8"/>
<path d="M162.836 184.793L164.225 183.939V194.085L162.836 194.939V184.793Z" fill="#CED3F8"/>
<path d="M166.114 184.123C165.942 184.033 165.858 183.841 165.858 183.547C165.858 183.252 165.942 182.957 166.114 182.659C166.282 182.36 166.494 182.13 166.747 181.976C166.999 181.823 167.211 181.785 167.378 181.865C167.547 181.946 167.635 182.13 167.635 182.412C167.635 182.71 167.551 183.018 167.387 183.325C167.219 183.632 167.007 183.867 166.747 184.024C166.494 184.178 166.282 184.212 166.114 184.118V184.123ZM166.046 185.663L167.435 184.809V192.11L166.046 192.963V185.663Z" fill="#CED3F8"/>
<path d="M169.68 190.591C169.219 190.719 168.855 190.749 168.579 190.681L169.111 189.055C169.379 189.11 169.699 189.089 170.072 188.991C170.444 188.893 170.816 188.73 171.177 188.509C172.005 187.997 172.421 187.476 172.421 186.939C172.421 186.683 172.317 186.571 172.105 186.601C171.897 186.631 171.556 186.742 171.088 186.939C170.6 187.148 170.2 187.289 169.896 187.361C169.588 187.433 169.323 187.386 169.095 187.233C168.871 187.075 168.755 186.734 168.755 186.205C168.755 185.514 168.991 184.814 169.459 184.11C169.928 183.406 170.564 182.808 171.365 182.317C171.772 182.066 172.181 181.874 172.585 181.737C172.993 181.601 173.325 181.55 173.585 181.58L173.053 183.205C172.549 183.149 171.984 183.316 171.356 183.704C170.948 183.956 170.64 184.22 170.428 184.502C170.216 184.783 170.111 185.044 170.111 185.292C170.111 185.565 170.224 185.688 170.452 185.667C170.676 185.642 171.028 185.535 171.5 185.343C171.972 185.143 172.361 185.005 172.665 184.942C172.969 184.873 173.229 184.911 173.45 185.061C173.669 185.21 173.778 185.543 173.778 186.064C173.778 186.747 173.537 187.442 173.053 188.151C172.573 188.859 171.917 189.464 171.088 189.977C170.607 190.271 170.135 190.484 169.68 190.612V190.591Z" fill="#CED3F8"/>
<path d="M180.142 177.71C180.594 177.97 180.818 178.627 180.818 179.685V183.87L179.429 184.724V180.76C179.429 180.125 179.309 179.719 179.065 179.544C178.821 179.37 178.473 179.425 178.021 179.702C177.508 180.018 177.104 180.457 176.808 181.016C176.512 181.575 176.364 182.211 176.364 182.923V186.614L174.975 187.468V177.321L176.364 176.468V180.159C176.591 179.715 176.876 179.309 177.212 178.947C177.549 178.58 177.925 178.268 178.341 178.012C179.089 177.552 179.689 177.453 180.142 177.714V177.71Z" fill="#CED3F8"/>
<path style="mix-blend-mode:multiply" d="M87.8849 425.537C92.1992 426.651 107.591 430.167 110.953 427.41C114.318 424.654 119.429 414.598 125.837 408.402C113.07 408.202 103.236 406.111 98.7865 409.059C94.3357 412.007 87.8806 425.537 87.8806 425.537H87.8849Z" fill="url(#paint6_linear_2392_27835)"/>
<path style="mix-blend-mode:multiply" d="M263.883 326.391C269.522 325.658 283.798 318.255 283.618 314.257C283.437 310.259 266.941 309.845 263.058 311.86C259.177 313.873 255.387 327.496 263.883 326.391Z" fill="url(#paint7_linear_2392_27835)"/>
<path d="M266.66 319.117C266.748 320.512 265.079 321.715 262.83 321.877C222.196 324.762 201.044 332.318 176.688 347.571C174.055 349.223 171.373 350.904 168.615 352.597L87.036 402.813L84.2066 401.071L82.4016 402.181L87.036 405.032L168.615 354.817C171.373 353.118 174.055 351.441 176.688 349.791C201.044 334.532 222.936 328.708 262.918 326.516C265.187 326.391 267.132 325.133 267.024 323.733L266.66 319.113V319.117Z" fill="#423EAF"/>
<path d="M266.664 319.096C266.776 320.495 265.095 321.715 262.83 321.877C222.196 324.762 201.044 332.318 176.688 347.571C174.055 349.223 171.373 350.904 168.615 352.597L87.036 402.813L82.4016 399.958L163.981 349.743C166.727 348.054 169.392 346.385 172.017 344.739C196.162 329.621 217.105 315.362 261.157 310.788C263.718 310.523 266.083 311.706 266.211 313.297L266.672 319.087L266.664 319.096Z" fill="#6B67E9"/>
<path d="M152.644 360.965C149.887 362.663 147.157 364.309 144.476 365.931C119.69 380.924 107.416 393.947 102.729 418.954C102.469 420.349 100.488 421.381 98.2115 421.313L88.8018 421.031C86.2086 420.955 84.2958 419.5 84.7239 417.921C84.2958 419.547 84.2317 421.944 84.7681 423.497C84.792 423.566 84.804 423.634 84.836 423.702C84.836 423.711 84.8401 423.719 84.844 423.732H84.8481C85.3604 424.773 86.8893 425.576 88.7984 425.635L99.6837 425.917C101.961 425.985 103.946 424.952 104.202 423.558C109.321 395.837 119.687 383.147 144.472 368.154C147.157 366.533 149.883 364.882 152.641 363.183L234.22 312.968L232.415 311.86L152.641 360.965H152.644Z" fill="url(#paint8_linear_2392_27835)"/>
<path d="M98.2072 421.313C100.485 421.381 102.466 420.349 102.726 418.954C107.413 393.947 119.687 380.924 144.472 365.931C147.157 364.31 149.883 362.659 152.641 360.965L234.22 310.75L229.585 307.896L148.006 358.111C145.26 359.8 142.547 361.442 139.878 363.055C115.32 377.916 92.1478 390.806 84.7202 417.921C84.2879 419.496 86.2051 420.955 88.7983 421.031L98.2072 421.313Z" fill="#807DFB"/>
<g style="mix-blend-mode:multiply">
<path d="M201.473 312.256C183.783 318.584 149.629 340.642 166.586 351.083C173.886 355.576 189.743 359.459 206.331 358.704C192.94 358.123 180.962 354.812 174.899 351.083C157.938 340.647 192.091 318.584 209.781 312.256C214.031 310.737 217.757 309.829 221.115 309.41C215.773 308.668 209.565 309.359 201.469 312.256H201.473Z" fill="url(#paint9_linear_2392_27835)"/>
<path d="M100.23 403.653C90.9581 397.948 86.0111 392.623 95.4406 382.635C103.121 374.499 125.076 360.709 142.757 358.61C124.384 356.011 96.0724 373.159 87.1279 382.635C77.6987 392.623 82.6454 397.948 91.9186 403.653C98.1137 407.468 111.901 413.125 127.053 411.961C115.327 411.077 105.269 406.755 100.23 403.653Z" fill="url(#paint10_linear_2392_27835)"/>
<path d="M161.732 360.93C161.412 358.797 162.628 356.689 165.129 355.149C165.962 354.637 166.898 354.223 167.898 353.894C167.306 353.622 166.734 353.344 166.206 353.063C162.744 352.866 159.318 353.613 156.817 355.154C154.315 356.694 153.099 358.802 153.419 360.935C165.001 369.183 174.046 390.251 151.798 405.227C151.234 405.608 150.661 405.97 150.097 406.324C142.581 410.949 134.669 413.069 127.045 413.611C137.062 414.315 148.112 412.665 158.405 406.324C158.974 405.97 159.542 405.608 160.107 405.227C182.358 390.251 173.313 369.183 161.732 360.935V360.93Z" fill="url(#paint11_linear_2392_27835)"/>
<path d="M245.788 314.06C238.205 309.393 230.929 306.645 221.099 307.755C227.055 308.489 232.19 310.809 237.477 314.06C248.286 320.717 262.714 336.999 239.95 351.011C239.381 351.361 238.785 351.71 238.165 352.055C228.488 357.505 217.246 359.898 206.372 360.363C219.651 360.939 234.303 358.909 246.477 352.055C247.097 351.706 247.69 351.356 248.262 351.011C271.026 336.999 256.598 320.713 245.788 314.06Z" fill="url(#paint12_linear_2392_27835)"/>
<path d="M148.46 358.29C148.776 357.262 149.341 356.272 150.137 355.346C141.088 352.995 129.722 355.968 118.816 360.94C129.438 356.984 140.224 355.26 148.46 358.29Z" fill="url(#paint13_linear_2392_27835)"/>
</g>
<path opacity="0.5" d="M166.59 345.801C178.452 353.106 212.907 358.81 236.396 345.592C260.909 331.793 244.892 315.635 235.623 309.926C226.35 304.222 217.702 301.176 201.477 306.978C183.787 313.305 149.633 335.365 166.59 345.805V345.801Z" fill="white"/>
<path opacity="0.5" d="M150.21 355.888C162.072 363.188 171.341 384.397 149.866 398.853C127.45 413.941 101.192 404.084 91.9227 398.38C82.6502 392.675 77.7076 387.346 87.1329 377.358C97.4062 366.469 133.249 345.447 150.21 355.888Z" fill="white"/>
<path d="M230.953 307.712C230.953 308.578 231.24 309.18 231.697 309.466L237.904 313.28C237.444 312.998 237.16 312.392 237.16 311.53C237.16 309.816 238.284 307.737 239.673 306.888C240.361 306.466 240.99 306.428 241.442 306.705L235.235 302.886C234.783 302.609 234.154 302.647 233.466 303.07C232.077 303.919 230.953 305.997 230.953 307.712Z" fill="url(#paint14_linear_2392_27835)"/>
<path d="M237.16 311.53C237.16 313.241 238.284 313.945 239.673 313.096C241.062 312.248 242.186 310.17 242.186 308.455C242.186 306.739 241.062 306.036 239.673 306.888C238.284 307.737 237.16 309.811 237.16 311.53Z" fill="#BBC0E6"/>
<path d="M238.533 310.691C238.533 311.467 239.046 311.791 239.674 311.403C240.306 311.019 240.814 310.072 240.814 309.295C240.814 308.518 240.302 308.198 239.674 308.582C239.046 308.967 238.533 309.909 238.533 310.691Z" fill="#6B67E9"/>
<path d="M201.475 312.256C217.699 306.453 226.352 309.5 235.621 315.204C240.647 318.302 247.636 324.472 249.092 331.67C251.085 322.3 241.844 313.758 235.621 309.926C226.348 304.222 217.699 301.176 201.475 306.978C186.03 312.499 158.052 330.014 162.47 341.317C165.944 330.445 188.279 316.975 201.475 312.256Z" fill="url(#paint15_linear_2392_27835)"/>
<path d="M87.1286 377.358C82.3821 382.384 81.2816 386.228 82.5383 389.539C83.2266 387.491 84.6914 385.221 87.1286 382.64C97.4019 371.751 133.245 350.729 150.206 361.17C156.249 364.886 161.605 372.22 162.581 380.425C163.842 370.189 157.522 360.388 150.206 355.888C133.245 345.447 97.4019 366.469 87.1286 377.358Z" fill="url(#paint16_linear_2392_27835)"/>
<path d="M159.419 338.974H159.412V344.21H159.419C159.419 344.52 159.472 344.824 159.508 345.131C160.296 344.965 161.104 344.828 161.929 344.734C160.22 342.98 159.443 341.035 159.419 338.974Z" fill="#CED3F8"/>
<path d="M252.016 329.225C251.948 334.614 248.706 340.34 239.945 345.732C239.377 346.082 238.781 346.433 238.161 346.778C213.828 360.474 179.593 354.906 166.198 347.776V353.054C179.593 360.184 213.828 365.756 238.161 352.056C238.781 351.706 239.374 351.356 239.945 351.011C248.727 345.604 251.96 339.862 252.016 334.46H252.032V329.22H252.016V329.225Z" fill="url(#paint17_linear_2392_27835)"/>
<path d="M156.818 349.867C154.317 351.407 153.101 353.52 153.421 355.648C153.905 355.99 154.381 356.365 154.853 356.753C155.377 356.173 156.029 355.631 156.818 355.145C159.315 353.609 162.745 352.858 166.207 353.054V347.776C162.745 347.58 159.32 348.326 156.818 349.867Z" fill="url(#paint18_linear_2392_27835)"/>
<path d="M151.799 399.941C151.234 400.321 150.663 400.688 150.098 401.038C127.334 415.049 100.876 406.171 90.0661 399.515C83.6268 395.551 79.4405 391.724 79.4245 386.953H79.4165V392.193H79.4365C79.4284 396.98 83.6107 400.82 90.0661 404.797C100.876 411.448 127.33 420.332 150.098 406.32C150.666 405.966 151.234 405.603 151.799 405.224C161.757 398.52 165.431 390.605 165.431 383.156H165.443V377.916H165.434C165.418 385.349 161.736 393.251 151.799 399.941Z" fill="url(#paint19_linear_2392_27835)"/>
<path d="M237.476 308.783C226.979 302.323 217.074 299.532 200.157 305.579C194.526 307.597 187.67 310.985 181.343 314.876C166.17 324.216 153.952 336.534 161.933 344.734C158.647 345.123 155.565 346.078 153.116 347.589C150.658 349.099 149.089 350.993 148.465 353.016C135.138 348.113 115.135 355.631 99.9677 364.971C93.6404 368.858 88.1407 373.082 84.8674 376.551C75.0381 386.962 79.5726 393.059 90.0704 399.523C100.88 406.179 127.334 415.058 150.102 401.046C150.67 400.697 151.239 400.334 151.803 399.95C174.055 384.973 165.006 363.905 153.424 355.657C153.104 353.523 154.32 351.416 156.822 349.876C159.319 348.34 162.749 347.589 166.211 347.785C179.606 354.914 213.84 360.482 238.173 346.786C238.793 346.437 239.385 346.091 239.958 345.742C262.722 331.729 248.295 315.443 237.485 308.791L237.476 308.783ZM149.862 398.853C127.446 413.941 101.188 404.084 91.9194 398.38C82.6462 392.675 77.6995 387.346 87.1287 377.358C97.4019 366.469 133.245 345.446 150.206 355.887C162.068 363.188 171.337 384.397 149.862 398.853ZM236.392 345.592C212.904 358.814 178.449 353.106 166.587 345.801C149.626 335.365 183.78 313.302 201.474 306.974C217.698 301.176 226.351 304.218 235.62 309.926C244.893 315.631 260.905 331.793 236.392 345.592Z" fill="#F6F6FB"/>
<path style="mix-blend-mode:multiply" d="M166.591 345.801C178.453 353.106 212.908 358.81 236.397 345.592C260.91 331.793 244.893 315.635 235.624 309.926C226.351 304.222 217.702 301.176 201.478 306.978C183.788 313.305 149.634 335.365 166.591 345.805V345.801Z" fill="url(#paint20_linear_2392_27835)"/>
<path style="mix-blend-mode:multiply" d="M249.367 329.66C249.119 334.848 245.641 340.386 236.396 345.592C212.908 358.814 178.452 353.106 166.59 345.801C164.193 344.325 162.844 342.614 162.3 340.754C198.275 343.54 218.922 340.215 249.367 329.66Z" fill="url(#paint21_linear_2392_27835)"/>
<g style="mix-blend-mode:screen">
<path d="M172.102 331.457C170.1 330.223 170.1 328.227 172.102 326.997C174.099 325.764 177.344 325.764 179.342 326.997C181.338 328.227 181.338 330.223 179.342 331.457C177.344 332.69 174.103 332.69 172.102 331.457Z" fill="#A5ABCC"/>
</g>
<g style="mix-blend-mode:screen">
<path d="M87.1004 385.622C85.0994 384.389 85.0994 382.392 87.1004 381.159C89.1013 379.926 92.3434 379.931 94.3401 381.159C96.3375 382.388 96.3375 384.385 94.3401 385.618C92.3391 386.851 89.1013 386.847 87.1004 385.618V385.622Z" fill="#A5ABCC"/>
</g>
<path style="mix-blend-mode:multiply" d="M150.21 355.888C162.072 363.188 171.341 384.397 149.866 398.853C127.45 413.941 101.192 404.084 91.9227 398.38C82.6502 392.675 77.7076 387.346 87.1329 377.358C97.4062 366.469 133.249 345.447 150.21 355.888Z" fill="url(#paint22_linear_2392_27835)"/>
<path style="mix-blend-mode:multiply" d="M162.693 379.354C162.209 386.049 158.555 392.999 149.863 398.853C127.447 413.941 101.188 404.084 91.9194 398.38C86.6609 395.141 82.7947 392.026 82.1543 388.114C105.522 393.64 137.176 390.346 162.697 379.354H162.693Z" fill="url(#paint23_linear_2392_27835)"/>
<path d="M237.476 308.783C226.979 302.323 217.074 299.532 200.157 305.579C194.526 307.597 187.67 310.985 181.343 314.876C166.17 324.216 153.952 336.534 161.933 344.734C158.647 345.123 155.565 346.078 153.116 347.589C150.658 349.099 149.089 350.993 148.465 353.016C135.138 348.113 115.135 355.631 99.9677 364.971C93.6404 368.858 88.1407 373.082 84.8674 376.551C75.0381 386.962 79.5726 393.059 90.0704 399.523C100.88 406.179 127.334 415.058 150.102 401.046C150.67 400.697 151.239 400.334 151.803 399.95C174.055 384.973 165.006 363.905 153.424 355.657C153.104 353.523 154.32 351.416 156.822 349.876C159.319 348.34 162.749 347.589 166.211 347.785C179.606 354.914 213.84 360.482 238.173 346.786C238.793 346.437 239.385 346.091 239.958 345.742C262.722 331.729 248.295 315.443 237.485 308.791L237.476 308.783ZM149.862 398.853C127.446 413.941 101.188 404.084 91.9194 398.38C82.6462 392.675 77.6995 387.346 87.1287 377.358C97.4019 366.469 133.245 345.446 150.206 355.887C162.068 363.188 171.337 384.397 149.862 398.853ZM236.392 345.592C212.904 358.814 178.449 353.106 166.587 345.801C149.626 335.365 183.78 313.302 201.474 306.974C217.698 301.176 226.351 304.218 235.62 309.926C244.893 315.631 260.905 331.793 236.392 345.592Z" fill="#F6F6FB"/>
<path d="M78.02 401.763C78.02 402.625 78.3042 403.231 78.7645 403.513L84.9717 407.327C84.5115 407.045 84.2273 406.439 84.2273 405.573C84.2273 403.858 85.352 401.784 86.7408 400.931C87.4292 400.508 88.0576 400.47 88.5099 400.752L82.3024 396.933C81.8501 396.656 81.2258 396.694 80.5334 397.117C79.1447 397.966 78.02 400.043 78.02 401.759V401.763Z" fill="url(#paint24_linear_2392_27835)"/>
<path d="M84.2275 405.577C84.2275 407.293 85.3521 407.992 86.7408 407.148C88.1297 406.299 89.2542 404.221 89.2542 402.505C89.2542 400.79 88.1297 400.086 86.7408 400.935C85.3562 401.784 84.2275 403.862 84.2275 405.577Z" fill="#BBC0E6"/>
<path d="M85.6006 404.741C85.6006 405.522 86.1124 405.838 86.7408 405.454C87.3734 405.07 87.8859 404.122 87.8859 403.346C87.8859 402.569 87.3734 402.25 86.7408 402.633C86.1124 403.017 85.6006 403.961 85.6006 404.741Z" fill="#6B67E9"/>
<path style="mix-blend-mode:multiply" d="M380.592 219.822H301.97C292.513 219.822 280.907 222.203 276.181 225.113L200.293 271.82C195.565 274.73 199.432 277.111 208.885 277.111H380.588V219.818L380.592 219.822Z" fill="url(#paint25_linear_2392_27835)"/>
<path d="M289.988 212.492C289.988 218.312 286.118 225.454 281.388 228.368L205.499 275.08C200.769 277.99 196.903 275.609 196.903 269.789V80.0062C196.903 74.1864 200.772 67.0439 205.499 64.134L281.388 17.4263C286.118 14.5164 289.988 16.8972 289.988 22.7127V212.496V212.492Z" fill="#E8ECF7"/>
<path d="M281.475 12.6177V12.6305C279.898 11.534 277.673 11.5979 275.208 13.1169L199.323 59.8246C194.593 62.7345 190.727 69.877 190.727 75.6968V265.484C190.727 268.412 191.708 270.468 193.285 271.42L199.388 275.669C197.862 274.696 196.914 272.665 196.914 269.789V80.0062C196.914 74.1864 200.784 67.0439 205.511 64.134L281.4 17.4263C283.861 15.9117 286.082 15.8391 287.655 16.9314V16.9228L281.484 12.622L281.475 12.6177ZM199.451 275.72C199.451 275.72 199.444 275.72 199.444 275.716H199.451V275.72Z" fill="url(#paint26_linear_2392_27835)"/>
<path d="M284.593 28.6136V204.572L202.301 255.223V80.1555L284.593 28.6136Z" fill="white"/>
<path d="M259.408 103.977C259.584 103.87 259.749 103.767 259.905 103.67V77.9325C259.749 78.0307 259.581 78.133 259.408 78.2397L226.988 98.1947V123.932L259.408 103.977Z" fill="#5652CC"/>
<path d="M251.62 99.6461L259.909 94.5432V87.059L251.62 92.1623L259.909 81.9176V78.0349L246.242 94.9308V86.3465L240.158 90.0884V98.6727L226.988 98.6087V102.488L234.779 102.526L226.988 107.322V114.809L234.779 110.014L226.988 119.64V123.523L240.158 107.245V115.825L246.242 112.083V103.503L259.909 103.567V99.6881L251.62 99.6461Z" fill="white"/>
<path d="M259.909 88.1342L245.365 97.0896V86.8883L241.035 89.5507V99.7521L226.988 108.401V113.73L241.035 105.086V115.287L245.365 112.621V102.419L259.909 93.4675V88.1342Z" fill="#ED5743"/>
<path d="M259.909 79.6648L247.99 94.3934L250.832 92.644L259.909 81.427V79.6648Z" fill="#ED5743"/>
<path d="M259.909 100.175L250.832 100.132L247.99 101.882L259.909 101.937V100.175Z" fill="#ED5743"/>
<path d="M226.988 102.001L235.564 102.044L238.41 100.294L226.988 100.239V102.001Z" fill="#ED5743"/>
<path d="M226.988 121.893L238.41 107.778L235.564 109.527L226.988 120.131V121.893Z" fill="#ED5743"/>
<path d="M237.962 161.142L226.988 167.896V142.164L237.962 135.409V161.142Z" fill="#807DFB"/>
<path d="M248.935 154.387L237.961 161.142V135.409L248.935 128.651V154.387Z" fill="#F6F6FB"/>
<path d="M259.91 147.634L248.936 154.387V128.651L259.91 121.897V147.634Z" fill="#ED5743"/>
<path d="M226.988 211.963V186.23L259.909 165.963V191.701L226.988 211.963Z" fill="#ED5743"/>
<path d="M232.467 191.52L230.486 194.443L231.186 191.162L229.261 190.553L231.674 189.003L232.467 185.706L233.263 188.026L235.676 186.601L233.751 189.584L234.451 191.998L232.467 191.52Z" fill="#FCBA06"/>
<path d="M240.675 183.918L240.294 184.975L240.174 184.114L239.422 184.391L240.107 183.538L240.019 182.65L240.563 182.987L241.264 182.16L240.915 183.222L241.435 183.598L240.675 183.918Z" fill="#FCBA06"/>
<path d="M240.466 188.308L239.866 189.272L240.038 188.24L239.394 188.116L240.162 187.557L240.367 186.52L240.666 187.207L241.439 186.686L240.858 187.668L241.131 188.389L240.466 188.308Z" fill="#FCBA06"/>
<path d="M238.026 192.545L237.281 193.249L237.737 192.203L237.318 191.67L238.05 191.52L238.53 190.484L238.526 191.435L239.246 191.329L238.51 192.067L238.474 193.04L238.026 192.545Z" fill="#FCBA06"/>
<path d="M238.45 182.33L238.41 183.304L237.962 182.8L237.217 183.504L237.677 182.458L237.261 181.921L237.989 181.775L238.477 180.739L238.465 181.695L239.186 181.596L238.45 182.33Z" fill="#FCBA06"/>
<path d="M217.385 88.6933C219.749 84.3281 219.748 79.6099 217.384 78.1548C215.02 76.6997 211.187 79.0587 208.824 83.4239C206.46 87.7891 206.46 92.5069 208.824 93.9619C211.188 95.417 215.021 93.058 217.385 88.6933Z" fill="#DAE0F5"/>
<path d="M212.216 86.5897C211.711 86.4915 211.371 85.9582 211.371 85.1048C211.371 83.8078 212.147 82.2803 213.108 81.6872C214.068 81.0984 214.845 81.6702 214.845 82.963C214.845 83.8163 214.505 84.7635 214 85.4846C215.469 85.1902 216.405 86.1716 216.402 87.443C216.153 87.5966 213.104 89.4697 213.104 89.4697C213.104 89.4697 210.059 91.3471 209.806 91.5005C209.806 90.2292 210.743 88.0958 212.211 86.5854L212.216 86.5897Z" fill="white"/>
<path d="M279.963 39.3828L272.251 44.1274V42.9327L279.963 38.1838V39.3828Z" fill="#CED3F8"/>
<path d="M279.963 42.3524L272.251 47.1012V45.9024L279.963 41.1577V42.3524Z" fill="#CED3F8"/>
<path d="M279.963 45.3263L272.251 50.0751V48.8763L279.963 44.1274V45.3263Z" fill="#CED3F8"/>
<path style="mix-blend-mode:multiply" d="M339.908 293.218H302.223V300.604H339.908V293.218Z" fill="url(#paint27_linear_2392_27835)"/>
<path style="mix-blend-mode:multiply" d="M356.904 282.556H319.216V289.941H356.904V282.556Z" fill="url(#paint28_linear_2392_27835)"/>
<path d="M323.386 287.667C323.386 281.864 319.936 281.698 319.936 281.698C319.936 281.698 318.068 281.698 315.038 280.354C312.044 279.027 307.826 279.539 310.183 284.176C310.203 284.232 310.231 284.288 310.263 284.347C310.407 284.595 310.655 284.833 311.028 285.064L318.564 289.775C319.712 290.475 323.359 288.857 323.386 287.662V287.667Z" fill="url(#paint29_linear_2392_27835)"/>
<path d="M323.362 287.147C323.298 288.337 319.7 289.924 318.559 289.229L311.024 284.518C310.776 284.365 310.343 284.057 309.959 283.695C310.027 283.856 310.087 284.006 310.176 284.181C310.195 284.237 310.224 284.292 310.255 284.352C310.4 284.599 310.648 284.838 311.019 285.068L318.556 289.779C319.632 290.436 322.898 289.058 323.33 287.897C323.35 287.808 323.362 287.726 323.362 287.662C323.378 287.483 323.362 287.321 323.358 287.147H323.362Z" fill="#20196F"/>
<path d="M321.982 280.934C321.094 280.934 317.968 281.783 317.968 281.783C317.968 281.783 317.948 282.244 317.687 282.645C317.656 282.684 317.627 282.718 317.6 282.756C316.984 283.212 316.359 283.938 317.82 284.915C319.016 285.717 319.993 285.209 320.453 284.715C320.641 284.344 320.918 283.925 321.301 283.686C321.698 283.443 321.942 283.332 322.118 283.319C322.118 283.293 322.126 283.238 322.126 283.238C322.126 283.238 322.35 280.93 321.978 280.93L321.982 280.934Z" fill="white"/>
<path d="M322.038 224.212C318.632 224.276 310.115 224.438 306.71 224.502C307.979 235.421 310.528 245.337 312.233 255.91C314.061 266.184 316.122 273.408 317.92 281.958C318.577 283.549 321.59 282.948 322.203 281.416C322.678 273.54 323.227 263.944 321.038 254.86C321.406 245.064 322.251 234.098 322.038 224.212Z" fill="#20196F"/>
<path d="M306.209 298.325C306.209 292.523 302.759 292.356 302.759 292.356C302.759 292.356 300.89 292.356 297.857 291.012C294.864 289.685 290.645 290.197 293.003 294.835C293.022 294.89 293.05 294.946 293.082 295.005C293.227 295.253 293.475 295.493 293.846 295.723L301.383 300.433C302.532 301.133 306.177 299.516 306.206 298.321L306.209 298.325Z" fill="url(#paint30_linear_2392_27835)"/>
<path d="M306.188 297.805C306.125 298.995 302.526 300.583 301.386 299.887L293.85 295.176C293.602 295.023 293.17 294.716 292.785 294.353C292.858 294.515 292.918 294.664 293.002 294.839C293.021 294.895 293.05 294.951 293.082 295.01C293.226 295.258 293.474 295.496 293.846 295.727L301.382 300.437C302.454 301.094 305.724 299.716 306.157 298.555C306.173 298.466 306.188 298.385 306.188 298.321C306.205 298.141 306.188 297.98 306.181 297.805H306.188Z" fill="#20196F"/>
<path d="M304.805 291.592C303.92 291.592 300.791 292.442 300.791 292.442C300.791 292.442 300.771 292.902 300.515 293.304C300.483 293.342 300.455 293.376 300.427 293.414C299.815 293.871 299.186 294.596 300.647 295.573C301.844 296.375 302.82 295.867 303.28 295.373C303.469 295.002 303.744 294.583 304.129 294.345C304.525 294.101 304.769 293.99 304.941 293.977C304.941 293.952 304.95 293.897 304.95 293.897C304.95 293.897 305.174 291.588 304.801 291.588L304.805 291.592Z" fill="white"/>
<path d="M311.229 250.176C312.161 245.482 322.903 244.897 322.198 226.443C318.828 225.915 301.824 234.418 298.453 233.889C298.034 244.881 299.03 255.107 299.09 265.839C299.318 276.296 300.247 283.776 300.711 292.527C301.115 294.212 304.181 294.143 305.018 292.74C306.694 285.051 308.704 275.682 307.935 266.333C308.94 261.158 310.132 255.67 311.225 250.176H311.229Z" fill="url(#paint31_linear_2392_27835)"/>
<path d="M314.426 190.607C326.42 199.154 327.853 216.123 321.365 226.892C321.365 226.892 322.758 203.029 314.426 190.607Z" fill="url(#paint32_linear_2392_27835)"/>
<path d="M314.974 236.906C307.674 241.275 300.034 241.283 297.428 235.912C298.401 225.915 299.314 217.778 297.436 208.191C297.992 202.896 299.114 199.683 298.477 196.594C302.496 196.009 305.953 189.43 308.282 188.927C318.268 186.755 323.118 205.72 322.282 225.941C321.509 231.316 318.568 234.751 314.974 236.901V236.906Z" fill="url(#paint33_linear_2392_27835)"/>
<path d="M313.817 190.134C311.652 188.466 311.972 187.374 312.296 185.104C312.709 183.913 312.948 182.591 312.948 181.182C312.948 176.127 309.927 171.757 306.225 172.027C298.765 172.572 300.094 176.758 300.094 181.814C300.094 186.499 302.087 189.724 305.421 190.266C305.421 191.034 304.04 192.681 303.131 193.65C306.777 196.679 310.315 193.266 311.72 192.592C313.217 191.871 314.833 191.252 313.817 190.13V190.134Z" fill="#FCD1A9"/>
<path d="M300.943 197.162C289.425 194.866 281.933 185.812 277.267 176.992L273.364 178.831C275.738 190.164 283.989 205.81 299.094 208.728C306.734 208.728 306.133 198.194 300.943 197.162Z" fill="url(#paint34_linear_2392_27835)"/>
<path d="M276.806 175.512L276.822 175.559C276.822 173.503 276.418 172.304 275.673 171.954L275.681 171.976C275.514 171.463 275.345 170.947 275.181 170.46C274.221 167.589 271.207 165.131 270.567 165.814C270.182 166.228 271.715 167.487 272.52 168.856C273.052 169.756 273.056 170.255 273.192 171.007C273.192 171.007 269.586 171.365 269.586 174.56C269.586 177.159 270.899 176.131 270.899 175.619C271.828 178.247 272.932 176.694 273.36 178.841L277.262 177.002C277.262 177.002 277.078 176.408 276.802 175.516L276.806 175.512Z" fill="#FCD1A9"/>
<path d="M309.503 170.751C308.542 170.222 307.673 170.495 307.138 170.127C305.86 169.296 304.656 168.766 303.98 169.159C303.652 169.351 303.031 169.966 303.031 169.966C302.367 170.674 301.006 169.168 300.682 170.994C300.586 171.531 300.566 171.975 300.57 172.414C297.385 172.85 298.953 175.943 301.51 181.903C301.51 180.935 303.44 178.7 303.44 183C303.44 183.461 303.115 183.55 303.399 184.166C303.684 184.775 305.516 186.32 306.725 187.604C308.41 189.4 309.399 187.788 312.188 188.112C312.188 186.84 312.497 186.2 312.921 185.402C313.189 184.899 314.717 183.299 314.717 180.509C312.557 180.795 316.398 174.539 309.498 170.751H309.503Z" fill="#20196F"/>
<g style="mix-blend-mode:multiply">
<path d="M270.389 382.504L252.335 393.614L259.687 393.512L277.576 382.504L270.389 378.079L267.171 380.524L270.389 382.504Z" fill="url(#paint35_linear_2392_27835)"/>
<path d="M276.6 392.607L261.736 393.485L270.637 393.362L276.6 397.032L259.495 397.262L255.193 410.975H262.381L266.687 397.262L283.788 397.032L276.6 392.607Z" fill="url(#paint36_linear_2392_27835)"/>
<path d="M252.663 397.539L245.916 397.564L239.66 401.413H246.848L252.551 397.906L252.663 397.539Z" fill="url(#paint37_linear_2392_27835)"/>
</g>
<path d="M239.661 401.413L235.022 398.559V393.101L239.661 395.956V401.413Z" fill="#5652CC"/>
<path d="M270.39 382.503L239.661 401.413V395.956L270.39 377.041V382.503Z" fill="#423EAF"/>
<path d="M259.495 397.262L255.193 410.975V405.513L259.495 391.801V397.262Z" fill="#423EAF"/>
<path d="M252.663 397.539L245.915 397.564V392.108L252.663 392.082V397.539Z" fill="#5652CC"/>
<path d="M255.193 410.975L249.558 407.506V402.049L255.193 405.513V410.975Z" fill="#5652CC"/>
<path d="M276.6 397.032L259.495 397.262V391.801L276.6 391.574V397.032Z" fill="#5652CC"/>
<path d="M239.661 395.956L235.022 393.101L265.747 374.187L270.385 377.041L252.332 388.157L270.634 387.901L276.596 391.569L259.495 391.801L255.189 405.513L249.558 402.045L252.664 392.078L245.916 392.103L239.664 395.952L239.661 395.956Z" fill="#807DFB"/>
<path style="mix-blend-mode:multiply" d="M407.371 371.141L389.096 359.894L377.114 332.792H362.958L373.144 356.429L359.705 366.247L377.978 377.494H397.045L407.371 371.141Z" fill="url(#paint38_linear_2392_27835)"/>
<path d="M354.077 356.429V341.266L346.862 324.514V339.678L354.077 356.429Z" fill="#CED3F8"/>
<path d="M359.705 366.247V351.088L377.978 362.334V377.494L359.705 366.247Z" fill="#CED3F8"/>
<path d="M315.678 358.874L315.682 343.711L359.705 351.088V366.247L315.678 358.874Z" fill="#BBC0E6"/>
<path d="M377.979 377.494V362.334L388.304 355.977V371.141L377.979 377.494Z" fill="#BBC0E6"/>
<path d="M388.304 355.977L377.975 362.334L359.701 351.088L315.674 343.711L326.864 336.824L354.074 341.266L346.858 324.518L358.048 317.632L370.031 344.73L388.304 355.977Z" fill="#F6F6FB"/>
<path style="mix-blend-mode:multiply" d="M507.36 347.482L475.182 327.77C471.977 325.794 466.726 325.794 463.52 327.77L431.339 347.478C428.134 349.453 428.134 352.679 431.339 354.654L461.471 373.112V375.847H469.348C471.46 375.847 473.573 375.352 475.179 374.366L507.356 354.654C510.562 352.679 510.562 349.449 507.356 347.478L507.36 347.482Z" fill="url(#paint39_linear_2392_27835)"/>
<path d="M467.311 369.558C464.105 371.534 458.854 371.534 455.648 369.558L423.471 349.845C420.266 347.87 420.266 344.645 423.471 342.67L455.652 322.957C458.858 320.981 464.105 320.981 467.311 322.957L499.488 342.67C502.693 344.645 502.693 347.875 499.488 349.845L467.311 369.558Z" fill="#F6F6FB"/>
<path d="M423.471 349.845L455.648 369.558C458.853 371.534 464.1 371.534 467.31 369.558L499.491 349.845C500.955 348.945 501.74 347.781 501.868 346.594V350.755C501.892 350.968 501.892 351.177 501.868 351.39V351.416C501.74 352.597 500.952 353.763 499.491 354.663L467.31 374.375C464.104 376.35 458.853 376.35 455.648 374.375L423.471 354.663C421.837 353.66 421.041 352.329 421.069 351.006V346.257C421.065 347.559 421.865 348.86 423.471 349.845Z" fill="url(#paint40_linear_2392_27835)"/>
<g style="mix-blend-mode:multiply">
<path d="M439.563 345.187L449.549 339.038C452.053 337.498 454.771 336.435 457.709 335.851C460.643 335.266 463.544 335.199 466.409 335.642C469.275 336.086 471.872 337.025 474.193 338.453C476.519 339.883 478.04 341.483 478.764 343.245C479.484 345.008 479.373 346.795 478.424 348.6C477.476 350.405 475.75 352.077 473.246 353.622L463.26 359.766L439.567 345.182L439.563 345.187ZM470.095 351.937C472.013 350.755 473.329 349.487 474.038 348.135C474.75 346.783 474.826 345.447 474.274 344.133C473.721 342.823 472.565 341.624 470.803 340.54C469.043 339.456 467.098 338.744 464.965 338.407C462.832 338.066 460.667 338.117 458.465 338.552C456.264 338.987 454.207 339.798 452.286 340.98L445.89 344.918L463.696 355.879L470.092 351.94L470.095 351.937Z" fill="#DAE0F5"/>
</g>
<path style="mix-blend-mode:multiply" d="M225.042 297.126L208.649 292.838L205.471 294.797L154.216 286.106L143.61 292.634L158.755 295.189L140.032 306.714L116.584 309.269L118.117 323.268L168.143 317.799L173.17 314.679L229.86 309.469L236.38 305.455L225.042 297.126Z" fill="url(#paint41_linear_2392_27835)"/>
<path d="M142.266 269.785L130.127 262.31L143.61 292.634L155.749 300.105L142.266 269.785Z" fill="#A3A9D0"/>
<path d="M137.411 256.414L125.272 248.938L134.918 243.003L147.06 250.474L137.411 256.414Z" fill="#F6F6FB"/>
<path d="M136.643 289.212L124.504 281.741L135.686 274.858L147.824 282.329L136.643 289.212Z" fill="#F6F6FB"/>
<path d="M155.75 300.105L151.596 290.786L132.873 302.31L128.72 316.745L118.114 323.273L137.408 256.417L147.058 250.478L166.352 293.58L155.746 300.108L155.75 300.105ZM142.271 269.785L136.648 289.212L147.83 282.329L142.271 269.785Z" fill="#BBC0E6"/>
<path d="M118.118 323.268L105.975 315.797L125.273 248.938L137.412 256.414L118.118 323.268Z" fill="#CED3F8"/>
<path d="M300.178 82.1139L335.089 103.606C337.637 105.176 339.723 109.02 339.727 112.147V143.537C339.727 146.665 337.637 147.941 335.089 146.371L319.036 136.489L315.534 138.644L312.032 132.175L300.178 124.879C297.628 123.309 295.543 119.464 295.543 116.338V84.947C295.543 81.8195 297.628 80.5438 300.182 82.1139H300.178Z" fill="#FFD03E"/>
<path d="M337.018 102.419L302.107 80.9278C300.766 80.1 299.557 80.0702 298.709 80.676L296.976 81.7384C297.809 81.2648 298.941 81.3501 300.186 82.1182L335.097 103.609C337.646 105.179 339.731 109.024 339.734 112.151V143.542C339.734 145.048 339.247 146.123 338.454 146.657L340.215 145.573C341.104 145.082 341.664 143.964 341.664 142.351V110.961C341.664 107.834 339.578 103.989 337.025 102.419H337.018Z" fill="url(#paint42_linear_2392_27835)"/>
<path d="M329.883 116.453C329.883 115.522 329.271 114.392 328.515 113.926C327.759 113.461 327.146 113.837 327.146 114.767C327.146 115.697 327.759 116.827 328.515 117.293C329.271 117.758 329.883 117.382 329.883 116.453Z" fill="white"/>
<path d="M325.138 113.547C325.138 112.617 324.526 111.486 323.769 111.021C323.013 110.556 322.401 110.931 322.401 111.862C322.401 112.791 323.013 113.922 323.769 114.387C324.526 114.852 325.138 114.477 325.138 113.547Z" fill="white"/>
<path d="M320.396 110.637C320.396 109.707 319.783 108.576 319.026 108.111C318.27 107.645 317.658 108.021 317.658 108.952C317.658 109.882 318.27 111.013 319.026 111.478C319.783 111.942 320.396 111.567 320.396 110.637Z" fill="white"/>
<path d="M315.65 107.731C315.65 106.801 315.037 105.67 314.281 105.205C313.525 104.74 312.912 105.115 312.912 106.046C312.912 106.976 313.525 108.107 314.281 108.571C315.037 109.037 315.65 108.662 315.65 107.731Z" fill="white"/>
<path d="M310.906 104.821C310.906 103.892 310.294 102.76 309.537 102.296C308.781 101.831 308.169 102.206 308.169 103.136C308.169 104.066 308.781 105.197 309.537 105.662C310.294 106.127 310.906 105.752 310.906 104.821Z" fill="white"/>
<g style="mix-blend-mode:multiply">
<path d="M307.969 115.471C308.905 116.047 309.782 116.141 310.446 115.732C311.283 115.219 312.639 116.055 313.472 117.592C314.837 120.113 317.062 121.479 318.426 120.643C318.831 120.395 319.367 120.451 319.94 120.804C320.511 121.159 321.048 121.76 321.452 122.507C322.112 123.727 322.993 124.717 323.93 125.293C324.866 125.869 325.742 125.963 326.407 125.553C327.24 125.042 328.6 125.878 329.433 127.413C330.797 129.935 333.023 131.301 334.387 130.464C334.651 130.302 334.651 129.769 334.387 129.278C334.123 128.787 333.69 128.523 333.423 128.685C332.59 129.197 331.229 128.36 330.397 126.82C329.032 124.303 326.811 122.934 325.446 123.774C325.042 124.022 324.506 123.966 323.934 123.616C323.361 123.267 322.825 122.661 322.421 121.914C321.76 120.694 320.88 119.704 319.943 119.128C319.007 118.551 318.13 118.458 317.466 118.868C316.633 119.379 315.273 118.543 314.44 117.003C313.076 114.486 310.855 113.116 309.49 113.957C309.085 114.203 308.549 114.149 307.977 113.798C307.405 113.448 306.868 112.842 306.464 112.096C305.804 110.876 304.923 109.886 303.987 109.31C303.05 108.734 302.17 108.64 301.509 109.049C301.246 109.212 301.246 109.745 301.509 110.236C301.774 110.727 302.206 110.991 302.474 110.829C302.878 110.581 303.415 110.637 303.987 110.991C304.559 111.345 305.096 111.947 305.5 112.693C306.16 113.914 307.041 114.904 307.977 115.479L307.969 115.471Z" fill="#D1D7F3"/>
</g>
<defs>
<linearGradient id="paint0_linear_2392_27835" x1="462.192" y1="249.57" x2="580.751" y2="249.57" gradientUnits="userSpaceOnUse">
<stop stop-color="#DAE0F5"/>
<stop offset="0.45" stop-color="#E8EBF8"/>
<stop offset="1" stop-color="white"/>
</linearGradient>
<linearGradient id="paint1_linear_2392_27835" x1="462.277" y1="226.162" x2="543.841" y2="226.162" gradientUnits="userSpaceOnUse">
<stop stop-color="#D1D7F3"/>
<stop offset="1" stop-color="#E8ECF7"/>
</linearGradient>
<linearGradient id="paint2_linear_2392_27835" x1="405.402" y1="186.073" x2="392.904" y2="206.379" gradientUnits="userSpaceOnUse">
<stop stop-color="#807DFB"/>
<stop offset="0.29" stop-color="#5B56C8"/>
<stop offset="0.55" stop-color="#4039A2"/>
<stop offset="0.68" stop-color="#362E94"/>
</linearGradient>
<linearGradient id="paint3_linear_2392_27835" x1="99.7068" y1="259.681" x2="282.104" y2="259.681" gradientUnits="userSpaceOnUse">
<stop stop-color="#DAE0F5"/>
<stop offset="0.32" stop-color="#DFE4F6"/>
<stop offset="0.73" stop-color="#F0F2FB"/>
<stop offset="1" stop-color="white"/>
</linearGradient>
<linearGradient id="paint4_linear_2392_27835" x1="90.2302" y1="113.845" x2="180.462" y2="113.845" gradientUnits="userSpaceOnUse">
<stop stop-color="#DAE0F5"/>
<stop offset="0.32" stop-color="#DFE4F6"/>
<stop offset="0.73" stop-color="#F0F2FB"/>
<stop offset="1" stop-color="white"/>
</linearGradient>
<linearGradient id="paint5_linear_2392_27835" x1="111.805" y1="214.523" x2="87.6044" y2="214.523" gradientUnits="userSpaceOnUse">
<stop stop-color="#DC8B00"/>
<stop offset="0.43" stop-color="#F2AB04"/>
<stop offset="0.68" stop-color="#FCBA06"/>
</linearGradient>
<linearGradient id="paint6_linear_2392_27835" x1="87.8849" y1="417.972" x2="125.837" y2="417.972" gradientUnits="userSpaceOnUse">
<stop stop-color="#DAE0F5"/>
<stop offset="0.33" stop-color="#DEE3F6"/>
<stop offset="0.66" stop-color="#EAEDF9"/>
<stop offset="1" stop-color="white"/>
</linearGradient>
<linearGradient id="paint7_linear_2392_27835" x1="258.765" y1="318.566" x2="283.618" y2="318.566" gradientUnits="userSpaceOnUse">
<stop stop-color="#DAE0F5"/>
<stop offset="0.57" stop-color="#F1F4FB"/>
<stop offset="1" stop-color="white"/>
</linearGradient>
<linearGradient id="paint8_linear_2392_27835" x1="84.3838" y1="368.888" x2="234.223" y2="368.888" gradientUnits="userSpaceOnUse">
<stop offset="0.08" stop-color="#5652CC"/>
<stop offset="0.11" stop-color="#514DC5"/>
<stop offset="0.14" stop-color="#4440B3"/>
<stop offset="0.15" stop-color="#423EAF"/>
</linearGradient>
<linearGradient id="paint9_linear_2392_27835" x1="161.992" y1="333.965" x2="221.119" y2="333.965" gradientUnits="userSpaceOnUse">
<stop stop-color="#D1D7F3"/>
<stop offset="0.5" stop-color="#E5E9F8"/>
<stop offset="1" stop-color="white"/>
</linearGradient>
<linearGradient id="paint10_linear_2392_27835" x1="82.057" y1="385.23" x2="142.757" y2="385.23" gradientUnits="userSpaceOnUse">
<stop stop-color="#D1D7F3"/>
<stop offset="0.5" stop-color="#E5E9F8"/>
<stop offset="1" stop-color="white"/>
</linearGradient>
<linearGradient id="paint11_linear_2392_27835" x1="127.041" y1="383.391" x2="173.754" y2="383.391" gradientUnits="userSpaceOnUse">
<stop stop-color="#D1D7F3"/>
<stop offset="0.5" stop-color="#E5E9F8"/>
<stop offset="1" stop-color="white"/>
</linearGradient>
<linearGradient id="paint12_linear_2392_27835" x1="206.372" y1="333.987" x2="260.344" y2="333.987" gradientUnits="userSpaceOnUse">
<stop stop-color="#D1D7F3"/>
<stop offset="0.5" stop-color="#E5E9F8"/>
<stop offset="1" stop-color="white"/>
</linearGradient>
<linearGradient id="paint13_linear_2392_27835" x1="118.816" y1="357.735" x2="150.137" y2="357.735" gradientUnits="userSpaceOnUse">
<stop stop-color="#D1D7F3"/>
<stop offset="0.5" stop-color="#E5E9F8"/>
<stop offset="1" stop-color="white"/>
</linearGradient>
<linearGradient id="paint14_linear_2392_27835" x1="237.454" y1="304.158" x2="233.493" y2="310.926" gradientUnits="userSpaceOnUse">
<stop stop-color="#F6F6FB"/>
<stop offset="1" stop-color="#CED3F8"/>
</linearGradient>
<linearGradient id="paint15_linear_2392_27835" x1="162.001" y1="322.585" x2="249.369" y2="322.585" gradientUnits="userSpaceOnUse">
<stop offset="0.53" stop-color="#BBC0E6"/>
<stop offset="0.7" stop-color="#C7CCF1"/>
<stop offset="0.87" stop-color="#CED3F8"/>
</linearGradient>
<linearGradient id="paint16_linear_2392_27835" x1="82.058" y1="371.294" x2="162.745" y2="371.294" gradientUnits="userSpaceOnUse">
<stop offset="0.53" stop-color="#BBC0E6"/>
<stop offset="0.7" stop-color="#C7CCF1"/>
<stop offset="0.87" stop-color="#CED3F8"/>
</linearGradient>
<linearGradient id="paint17_linear_2392_27835" x1="166.202" y1="344.841" x2="252.032" y2="344.841" gradientUnits="userSpaceOnUse">
<stop stop-color="#CED3F8"/>
<stop offset="0.5" stop-color="#C7CCF1"/>
<stop offset="1" stop-color="#BBC0E6"/>
</linearGradient>
<linearGradient id="paint18_linear_2392_27835" x1="153.368" y1="352.252" x2="166.203" y2="352.252" gradientUnits="userSpaceOnUse">
<stop stop-color="#CED3F8"/>
<stop offset="0.5" stop-color="#C7CCF1"/>
<stop offset="1" stop-color="#BBC0E6"/>
</linearGradient>
<linearGradient id="paint19_linear_2392_27835" x1="79.4165" y1="395.837" x2="165.443" y2="395.837" gradientUnits="userSpaceOnUse">
<stop stop-color="#CED3F8"/>
<stop offset="0.5" stop-color="#C7CCF1"/>
<stop offset="1" stop-color="#BBC0E6"/>
</linearGradient>
<linearGradient id="paint20_linear_2392_27835" x1="172.827" y1="404.376" x2="157.973" y2="354.032" gradientUnits="userSpaceOnUse">
<stop stop-color="#E8ECF7"/>
<stop offset="0.44" stop-color="#EEF1F9"/>
<stop offset="1" stop-color="white"/>
</linearGradient>
<linearGradient id="paint21_linear_2392_27835" x1="190.988" y1="359.313" x2="154.093" y2="403.274" gradientUnits="userSpaceOnUse">
<stop stop-color="#CED3F8"/>
<stop offset="0.12" stop-color="#D8DCF9"/>
<stop offset="0.43" stop-color="#EDEFFC"/>
<stop offset="0.72" stop-color="#FAFBFE"/>
<stop offset="1" stop-color="white"/>
</linearGradient>
<linearGradient id="paint22_linear_2392_27835" x1="92.4919" y1="453.144" x2="77.0167" y2="400.705" gradientUnits="userSpaceOnUse">
<stop stop-color="#E8ECF7"/>
<stop offset="0.44" stop-color="#EEF1F9"/>
<stop offset="1" stop-color="white"/>
</linearGradient>
<linearGradient id="paint23_linear_2392_27835" x1="109.503" y1="405.997" x2="75.087" y2="447.005" gradientUnits="userSpaceOnUse">
<stop stop-color="#CED3F8"/>
<stop offset="0.12" stop-color="#D8DCF9"/>
<stop offset="0.43" stop-color="#EDEFFC"/>
<stop offset="0.72" stop-color="#FAFBFE"/>
<stop offset="1" stop-color="white"/>
</linearGradient>
<linearGradient id="paint24_linear_2392_27835" x1="84.5175" y1="398.211" x2="80.5571" y2="404.978" gradientUnits="userSpaceOnUse">
<stop stop-color="#F6F6FB"/>
<stop offset="1" stop-color="#CED3F8"/>
</linearGradient>
<linearGradient id="paint25_linear_2392_27835" x1="198.275" y1="248.469" x2="380.592" y2="248.469" gradientUnits="userSpaceOnUse">
<stop stop-color="#D1D7F3"/>
<stop offset="0.31" stop-color="#DBDFF5"/>
<stop offset="0.83" stop-color="#F5F7FC"/>
<stop offset="0.98" stop-color="white"/>
</linearGradient>
<linearGradient id="paint26_linear_2392_27835" x1="282.04" y1="12.9634" x2="142.054" y2="240.391" gradientUnits="userSpaceOnUse">
<stop offset="0.3" stop-color="#807DFB"/>
<stop offset="0.31" stop-color="#7B78F5"/>
<stop offset="0.41" stop-color="#5652CC"/>
</linearGradient>
<linearGradient id="paint27_linear_2392_27835" x1="302.223" y1="296.908" x2="339.908" y2="296.908" gradientUnits="userSpaceOnUse">
<stop stop-color="#D1D7F3"/>
<stop offset="0.33" stop-color="#E8EBF9"/>
<stop offset="0.65" stop-color="#F9F9FD"/>
<stop offset="0.9" stop-color="white"/>
</linearGradient>
<linearGradient id="paint28_linear_2392_27835" x1="319.216" y1="286.247" x2="356.901" y2="286.247" gradientUnits="userSpaceOnUse">
<stop stop-color="#D1D7F3"/>
<stop offset="0.33" stop-color="#E8EBF9"/>
<stop offset="0.65" stop-color="#F9F9FD"/>
<stop offset="0.9" stop-color="white"/>
</linearGradient>
<linearGradient id="paint29_linear_2392_27835" x1="309.495" y1="284.833" x2="323.386" y2="284.833" gradientUnits="userSpaceOnUse">
<stop stop-color="#5551CB"/>
<stop offset="0.66" stop-color="#3E37A3"/>
<stop offset="1" stop-color="#362E94"/>
</linearGradient>
<linearGradient id="paint30_linear_2392_27835" x1="292.318" y1="295.493" x2="306.209" y2="295.493" gradientUnits="userSpaceOnUse">
<stop stop-color="#5551CB"/>
<stop offset="0.66" stop-color="#3E37A3"/>
<stop offset="1" stop-color="#362E94"/>
</linearGradient>
<linearGradient id="paint31_linear_2392_27835" x1="298.35" y1="260.104" x2="322.23" y2="260.104" gradientUnits="userSpaceOnUse">
<stop stop-color="#423EAF"/>
<stop offset="0.3" stop-color="#353097"/>
<stop offset="0.75" stop-color="#251F7A"/>
<stop offset="1" stop-color="#20196F"/>
</linearGradient>
<linearGradient id="paint32_linear_2392_27835" x1="317.811" y1="193.052" x2="325.477" y2="223.992" gradientUnits="userSpaceOnUse">
<stop stop-color="#362E94"/>
<stop offset="1" stop-color="#5652CC"/>
</linearGradient>
<linearGradient id="paint33_linear_2392_27835" x1="297.428" y1="214.416" x2="322.374" y2="214.416" gradientUnits="userSpaceOnUse">
<stop stop-color="#807DFB"/>
<stop offset="0.37" stop-color="#6966E2"/>
<stop offset="0.73" stop-color="#5B57D1"/>
<stop offset="1" stop-color="#5652CC"/>
</linearGradient>
<linearGradient id="paint34_linear_2392_27835" x1="304.525" y1="203.403" x2="266.946" y2="183.84" gradientUnits="userSpaceOnUse">
<stop stop-color="#5652CC"/>
<stop offset="0.18" stop-color="#6662DE"/>
<stop offset="0.4" stop-color="#7471EE"/>
<stop offset="0.66" stop-color="#7D7AF8"/>
<stop offset="1" stop-color="#807DFB"/>
</linearGradient>
<linearGradient id="paint35_linear_2392_27835" x1="252.335" y1="385.848" x2="277.576" y2="385.848" gradientUnits="userSpaceOnUse">
<stop stop-color="#DAE0F5"/>
<stop offset="0.33" stop-color="#DEE3F6"/>
<stop offset="0.66" stop-color="#EAEDF9"/>
<stop offset="1" stop-color="white"/>
</linearGradient>
<linearGradient id="paint36_linear_2392_27835" x1="255.193" y1="401.789" x2="283.788" y2="401.789" gradientUnits="userSpaceOnUse">
<stop stop-color="#DAE0F5"/>
<stop offset="0.33" stop-color="#DEE3F6"/>
<stop offset="0.66" stop-color="#EAEDF9"/>
<stop offset="1" stop-color="white"/>
</linearGradient>
<linearGradient id="paint37_linear_2392_27835" x1="239.66" y1="399.477" x2="252.663" y2="399.477" gradientUnits="userSpaceOnUse">
<stop stop-color="#DAE0F5"/>
<stop offset="0.33" stop-color="#DEE3F6"/>
<stop offset="0.66" stop-color="#EAEDF9"/>
<stop offset="1" stop-color="white"/>
</linearGradient>
<linearGradient id="paint38_linear_2392_27835" x1="359.705" y1="355.145" x2="407.371" y2="355.145" gradientUnits="userSpaceOnUse">
<stop stop-color="#DAE0F5"/>
<stop offset="0.45" stop-color="#E8EBF8"/>
<stop offset="1" stop-color="white"/>
</linearGradient>
<linearGradient id="paint39_linear_2392_27835" x1="428.938" y1="351.075" x2="509.765" y2="351.075" gradientUnits="userSpaceOnUse">
<stop offset="0.37" stop-color="#C4CAE8"/>
<stop offset="0.52" stop-color="#CCD2EB"/>
<stop offset="0.78" stop-color="#E5E7F4"/>
<stop offset="1" stop-color="white"/>
</linearGradient>
<linearGradient id="paint40_linear_2392_27835" x1="421.065" y1="361.055" x2="501.884" y2="361.055" gradientUnits="userSpaceOnUse">
<stop offset="0.43" stop-color="#CED3F8"/>
<stop offset="0.54" stop-color="#B4BADC"/>
<stop offset="0.63" stop-color="#A5ABCC"/>
</linearGradient>
<linearGradient id="paint41_linear_2392_27835" x1="116.58" y1="304.686" x2="236.38" y2="304.686" gradientUnits="userSpaceOnUse">
<stop stop-color="#C4CAE9"/>
<stop offset="0.44" stop-color="#E4E7F5"/>
<stop offset="0.85" stop-color="white"/>
</linearGradient>
<linearGradient id="paint42_linear_2392_27835" x1="308.266" y1="74.7837" x2="348.645" y2="140.38" gradientUnits="userSpaceOnUse">
<stop offset="0.57" stop-color="#FCBA06"/>
<stop offset="0.64" stop-color="#ECA102"/>
<stop offset="0.7" stop-color="#E19100"/>
</linearGradient>
</defs>
</svg>
