<svg width="17" height="16" viewBox="0 0 17 16" fill="none" xmlns="http://www.w3.org/2000/svg">
<path fill-rule="evenodd" clip-rule="evenodd" d="M8.5 1.3333C4.8181 1.3333 1.8333 4.3181 1.8333 8C1.8333 11.6819 4.8181 14.6667 8.5 14.6667C12.1819 14.6667 15.1667 11.6819 15.1667 8C15.1667 4.3181 12.1819 1.3333 8.5 1.3333ZM0.5 8C0.5 3.5817 4.0817 0 8.5 0C12.9183 0 16.5 3.5817 16.5 8C16.5 12.4183 12.9183 16 8.5 16C4.0817 16 0.5 12.4183 0.5 8Z" fill="#0E0F11"/>
<path d="M7.6919 5V5.8617H6.55263V5.21543H6.34858C6.2752 5.25531 6.2652 5.29137 6.25506 5.35904L6.46761 6.94681L6.34858 7.1383L6.16154 7.01064L6.22955 6.89893L6 5.31915C6.00537 5.14526 6.0582 5.06741 6.28907 5H7.6919Z" fill="#E86027"/>
<path d="M7.69188 6.18872H6.56118H6.55261V9.42808H7.69188V6.18872Z" fill="#0E0F11"/>
<path d="M7.69188 9.54004H6.55261V9.80334C6.77271 9.90352 6.84809 9.99462 6.87687 10.2342V10.4017H7.36763V10.2342C7.3985 10.0206 7.47218 9.92739 7.69188 9.80334V9.54004Z" fill="#0E0F11"/>
<path d="M7.36885 10.4653H6.87573V10.7685C6.91372 10.8724 6.9472 10.9238 7.02877 10.9999L7.36885 10.7207V10.4653Z" fill="#E86027"/>
<path d="M8.61859 5.86959V5.01587H11.7048V5.86959H10.6591V10.9999H9.66434V5.86959H8.61859Z" fill="#0E0F11"/>
</svg>
