<svg width="72" height="72" viewBox="0 0 72 72" fill="none" xmlns="http://www.w3.org/2000/svg">
<g clip-path="url(#clip0_2384_27150)">
<path d="M36 72C55.8823 72 72 55.8823 72 36C72 16.1177 55.8823 0 36 0C16.1177 0 0 16.1177 0 36C0 55.8823 16.1177 72 36 72Z" fill="#4247E5" fill-opacity="0.05"/>
<path d="M38.0212 44.194L38.0177 44.1194L37.9925 44.049L34.6491 34.7243L35.2593 30.4025L36.9144 24H53.4272C54.5717 24 55.5 24.9283 55.5001 26.0728V53.1011C55.5001 54.2456 54.5717 55.1739 53.4273 55.1739H38.5422L38.0212 44.194Z" stroke="#2F54EB"/>
<path d="M44.8043 48.4999L38.0652 55.6738L35.6782 48.4999L36.6521 45.8844L44.8043 48.4999Z" fill="#2F54EB"/>
<path d="M52.6847 35.0761V33.4456H46.489V31.163H44.8586V33.4456H39.2749V35.0761H48.3288C47.8252 36.1364 46.9522 37.8272 45.7524 39.6101C44.6483 38.2312 43.9507 37.2717 43.9424 37.2603L43.4636 36.6005L42.1439 37.5579L42.6226 38.2177C42.6598 38.2691 43.4722 39.3867 44.7583 40.9755C43.8816 42.0497 42.2733 43.7963 41.4259 44.6437L42.5787 45.7965C43.3101 45.0651 44.8267 43.436 45.8151 42.2553C47.101 43.7829 48.356 45.1611 49.5537 46.3589L50.1301 46.9353L51.2831 45.7826L50.7067 45.2061C49.4693 43.9687 48.1662 42.5293 46.828 40.925C48.5572 38.4388 49.678 36.0847 50.1249 35.0761H52.6847Z" fill="#2F54EB"/>
<path d="M43.2913 43.9314L44.8044 48.5H35.6783H18.5728C17.1511 48.5 16 47.3478 16 45.9272V18.8988C16 17.4782 17.1511 16.326 18.5728 16.326H34.1522L36.5272 23.5L40.0902 34.2608L43.2913 43.9314Z" fill="#2F54EB"/>
<path fill-rule="evenodd" clip-rule="evenodd" d="M27.5 27.3333C23.8181 27.3333 20.8333 30.3181 20.8333 34C20.8333 37.6819 23.8181 40.6667 27.5 40.6667C31.1819 40.6667 34.1667 37.6819 34.1667 34C34.1667 30.3181 31.1819 27.3333 27.5 27.3333ZM19.5 34C19.5 29.5817 23.0817 26 27.5 26C31.9183 26 35.5 29.5817 35.5 34C35.5 38.4183 31.9183 42 27.5 42C23.0817 42 19.5 38.4183 19.5 34Z" fill="white"/>
<path d="M26.6919 31V31.8617H25.5526V31.2154H25.3486C25.2752 31.2553 25.2652 31.2914 25.2551 31.359L25.4676 32.9468L25.3486 33.1383L25.1615 33.0106L25.2296 32.8989L25 31.3191C25.0054 31.1453 25.0582 31.0674 25.2891 31H26.6919Z" fill="white"/>
<path d="M26.6919 32.1887H25.5612H25.5526V35.4281H26.6919V32.1887Z" fill="white"/>
<path d="M26.6919 35.5399H25.5526V35.8032C25.7727 35.9034 25.8481 35.9945 25.8769 36.2341V36.4016H26.3676V36.2341C26.3985 36.0204 26.4722 35.9273 26.6919 35.8032V35.5399Z" fill="white"/>
<path d="M26.3688 36.4653H25.8757V36.7685C25.9137 36.8724 25.9472 36.9238 26.0288 36.9999L26.3688 36.7207V36.4653Z" fill="white"/>
<path d="M27.6186 31.8696V31.0159H30.7048V31.8696H29.6591V36.9999H28.6643V31.8696H27.6186Z" fill="white"/>
</g>
<defs>
<clipPath id="clip0_2384_27150">
<rect width="72" height="72" fill="white"/>
</clipPath>
</defs>
</svg>
