<svg width="48" height="48" viewBox="0 0 48 48" fill="none" xmlns="http://www.w3.org/2000/svg">
<g clip-path="url(#clip0_2369_26952)">
<path d="M24 48C37.2548 48 48 37.2548 48 24C48 10.7452 37.2548 0 24 0C10.7452 0 0 10.7452 0 24C0 37.2548 10.7452 48 24 48Z" fill="#4247E5" fill-opacity="0.1"/>
<path d="M35.9655 21.2465C35.8828 20.9919 35.6628 20.8064 35.398 20.7679L27.9579 19.6868L24.6305 12.9449C24.5121 12.7049 24.2676 12.553 24 12.553C23.7324 12.553 23.488 12.7049 23.3695 12.9449L20.042 19.6868L12.602 20.7679C12.3372 20.8064 12.1171 20.9919 12.0344 21.2464C11.9517 21.501 12.0207 21.7804 12.2124 21.9672L17.5958 27.215L16.3252 34.6252C16.2798 34.889 16.3884 35.1555 16.6048 35.3128C16.7273 35.4018 16.8724 35.4471 17.0182 35.4471C17.1301 35.4471 17.2424 35.4204 17.3453 35.3664L24 31.8677L30.6544 35.3663C30.8913 35.4908 31.1783 35.4701 31.3948 35.3128C31.6114 35.1555 31.7199 34.8889 31.6746 34.625L30.4035 27.215L35.7876 21.9672C35.9792 21.7804 36.0483 21.501 35.9655 21.2465Z" fill="#4247E5"/>
<path fill-rule="evenodd" clip-rule="evenodd" d="M23.9999 21.1112C21.8521 21.1112 20.1111 22.8522 20.1111 25C20.1111 27.1478 21.8521 28.8889 23.9999 28.8889C26.1477 28.8889 27.8888 27.1478 27.8888 25C27.8888 22.8522 26.1477 21.1112 23.9999 21.1112ZM19.3333 25C19.3333 22.4227 21.4226 20.3334 23.9999 20.3334C26.5773 20.3334 28.6666 22.4227 28.6666 25C28.6666 27.5774 26.5773 29.6667 23.9999 29.6667C21.4226 29.6667 19.3333 27.5774 19.3333 25Z" fill="white"/>
<path d="M23.1279 23V23.5745H22.3684V23.1436H22.2324C22.1835 23.1702 22.1768 23.1942 22.17 23.2394L22.3117 24.2979L22.2324 24.4255L22.1077 24.3404L22.153 24.266L22 23.2128C22.0036 23.0968 22.0388 23.0449 22.1927 23H23.1279Z" fill="white"/>
<path d="M23.1282 23.7925H22.3744H22.3687V25.9521H23.1282V23.7925Z" fill="white"/>
<path d="M23.1282 26.0266H22.3687V26.2021C22.5154 26.2689 22.5656 26.3297 22.5848 26.4894V26.6011H22.912V26.4894C22.9326 26.347 22.9817 26.2848 23.1282 26.2021V26.0266Z" fill="white"/>
<path d="M22.9125 26.6436H22.5837V26.8457C22.6091 26.9149 22.6314 26.9492 22.6858 26.9999L22.9125 26.8138V26.6436Z" fill="white"/>
<path d="M23.7456 23.5796V23.0105H25.8031V23.5796H25.1059V26.9999H24.4428V23.5796H23.7456Z" fill="white"/>
</g>
<defs>
<clipPath id="clip0_2369_26952">
<rect width="48" height="48" fill="white"/>
</clipPath>
</defs>
</svg>
