<svg width="72" height="72" viewBox="0 0 72 72" fill="none" xmlns="http://www.w3.org/2000/svg">
<g clip-path="url(#clip0_2391_27212)">
<path d="M36 72C55.8823 72 72 55.8823 72 36C72 16.1177 55.8823 0 36 0C16.1177 0 0 16.1177 0 36C0 55.8823 16.1177 72 36 72Z" fill="#2F54EB" fill-opacity="0.05"/>
<path d="M23.7628 40.8154L20.0354 44.5429C19.9727 44.6026 19.9961 44.7107 20.0835 44.7366L24.5727 46.1003C25.2096 46.2941 25.7059 46.7903 25.8996 47.4271L27.2632 51.9164C27.2891 52.0037 27.3972 52.0272 27.457 51.9645L32.4444 46.9771C28.7543 46.0605 25.7079 43.76 23.7628 40.8154Z" fill="#2F54EB"/>
<path d="M51.9647 44.5429L48.2372 40.8154C46.306 43.7389 43.269 46.0547 39.5555 46.9772L44.5429 51.9646C44.6027 52.0272 44.7108 52.0038 44.7367 51.9164L46.1004 47.4272C46.2941 46.7903 46.7904 46.2941 47.4272 46.1004L51.9165 44.7367C52.0041 44.7106 52.0272 44.6024 51.9647 44.5429Z" fill="#2F54EB"/>
<path d="M48.7665 32.7668C48.7665 25.7276 43.0398 20.0002 36 20.0002C28.9601 20.0002 23.2334 25.7276 23.2334 32.7668C23.2334 39.1315 27.9196 44.4362 34.0381 45.3834C41.7886 46.589 48.7665 40.5564 48.7665 32.7668ZM26.0483 35.878C23.9429 29.1467 29.0113 22.3421 36 22.3421C43.807 22.3421 48.9672 30.7326 45.1616 37.7398C40.7682 45.7992 28.8135 44.6733 26.0483 35.878Z" fill="#2F54EB"/>
<path d="M36 24.217C31.2858 24.217 27.4496 28.0526 27.4496 32.7669C27.4496 39.7026 35.3131 43.7474 40.9443 39.7385C42.1508 38.8822 43.1333 37.7114 43.7655 36.3436C46.3924 30.6882 42.2047 24.217 36 24.217ZM40.3155 31.5675C40.2088 31.6468 35.0142 35.5022 34.9844 35.5244C34.6092 35.804 34.0755 35.7665 33.7419 35.4131C31.3558 32.8702 31.5467 33.0733 31.4895 33.0132C31.0885 32.5862 31.1722 31.8957 31.6738 31.5782C31.6745 31.5776 31.6751 31.577 31.6757 31.577C32.0482 31.3432 32.5451 31.3976 32.857 31.7301C33.3615 32.2679 33.0219 31.9059 34.5375 33.5207C34.7009 33.3989 36.6233 31.9727 39.268 30.0101C39.6836 29.7014 40.2711 29.7882 40.5792 30.2039C40.8616 30.5829 40.8606 31.1637 40.3155 31.5675Z" fill="#2F54EB"/>
<path d="M36 40C39.866 40 43 36.866 43 33C43 29.134 39.866 26 36 26C32.134 26 29 29.134 29 33C29 36.866 32.134 40 36 40Z" fill="#2F54EB"/>
<path fill-rule="evenodd" clip-rule="evenodd" d="M36 27.5833C33.0085 27.5833 30.5833 30.0085 30.5833 33C30.5833 35.9915 33.0085 38.4167 36 38.4167C38.9915 38.4167 41.4167 35.9915 41.4167 33C41.4167 30.0085 38.9915 27.5833 36 27.5833ZM29.5 33C29.5 29.4101 32.4101 26.5 36 26.5C39.5899 26.5 42.5 29.4101 42.5 33C42.5 36.5899 39.5899 39.5 36 39.5C32.4101 39.5 29.5 36.5899 29.5 33Z" fill="white"/>
<path d="M34.6919 30V30.8617H33.5526V30.2154H33.3486C33.2752 30.2553 33.2652 30.2914 33.2551 30.359L33.4676 31.9468L33.3486 32.1383L33.1615 32.0106L33.2296 31.8989L33 30.3191C33.0054 30.1453 33.0582 30.0674 33.2891 30H34.6919Z" fill="white"/>
<path d="M34.6919 31.1887H33.5612H33.5526V34.4281H34.6919V31.1887Z" fill="white"/>
<path d="M34.6919 34.5399H33.5526V34.8032C33.7727 34.9034 33.8481 34.9945 33.8769 35.2341V35.4016H34.3676V35.2341C34.3985 35.0204 34.4722 34.9273 34.6919 34.8032V34.5399Z" fill="white"/>
<path d="M34.3687 35.4653H33.8756V35.7685C33.9136 35.8724 33.9471 35.9238 34.0286 35.9999L34.3687 35.7207V35.4653Z" fill="white"/>
<path d="M35.6187 30.8697V30.0159H38.7049V30.8697H37.6591V36H36.6644V30.8697H35.6187Z" fill="white"/>
</g>
<defs>
<clipPath id="clip0_2391_27212">
<rect width="72" height="72" fill="white"/>
</clipPath>
</defs>
</svg>
