<svg width="72" height="72" viewBox="0 0 72 72" fill="none" xmlns="http://www.w3.org/2000/svg">
<g clip-path="url(#clip0_2386_27198)">
<path d="M36 72C55.8823 72 72 55.8823 72 36C72 16.1177 55.8823 0 36 0C16.1177 0 0 16.1177 0 36C0 55.8823 16.1177 72 36 72Z" fill="#E33C5C" fill-opacity="0.1"/>
<path d="M56 25.4531V19.5938C56 17.6552 54.4229 16.0781 52.4844 16.0781H19.5156C17.5771 16.0781 16 17.6552 16 19.5938V25.4531H56ZM43.0312 20.7656H50.0625C50.7097 20.7656 51.2344 21.2903 51.2344 21.9375C51.2344 22.5847 50.7097 23.1094 50.0625 23.1094H43.0312C42.3841 23.1094 41.8594 22.5847 41.8594 21.9375C41.8594 21.2903 42.3841 20.7656 43.0312 20.7656ZM31.3125 20.7656C31.9597 20.7656 32.4844 21.2903 32.4844 21.9375C32.4844 22.5847 31.9597 23.1094 31.3125 23.1094C30.6653 23.1094 30.1406 22.5847 30.1406 21.9375C30.1406 21.2903 30.6653 20.7656 31.3125 20.7656ZM26.625 20.7656C27.2722 20.7656 27.7969 21.2903 27.7969 21.9375C27.7969 22.5847 27.2722 23.1094 26.625 23.1094C25.9778 23.1094 25.4531 22.5847 25.4531 21.9375C25.4531 21.2903 25.9778 20.7656 26.625 20.7656ZM21.9375 20.7656C22.5847 20.7656 23.1094 21.2903 23.1094 21.9375C23.1094 22.5847 22.5847 23.1094 21.9375 23.1094C21.2903 23.1094 20.7656 22.5847 20.7656 21.9375C20.7656 21.2903 21.2903 20.7656 21.9375 20.7656Z" fill="#E33C5C"/>
<path d="M41.5305 46.5757V46.5756C40.8676 45.7469 41.0017 44.5374 41.8307 43.8744C41.8307 43.8743 41.8308 43.8743 41.8308 43.8743L45.8141 40.6875L41.8308 37.5008C41.0017 36.8377 40.8675 35.6282 41.5305 34.7995C42.1935 33.9706 43.403 33.8362 44.2318 34.4993L41.5305 46.5757ZM41.5305 46.5757C42.1947 47.4057 43.4044 47.5378 44.2318 46.8757H44.2319L50.0911 42.1883L41.5305 46.5757ZM30.4695 34.7993L30.4694 34.7992C29.8063 33.9705 28.5968 33.8361 27.7681 34.4993L21.9089 39.1866C21.9089 39.1867 21.9088 39.1867 21.9088 39.1867C20.9471 39.9559 20.9478 41.4195 21.9088 42.1882C21.9089 42.1882 21.9089 42.1882 21.9089 42.1882L27.7681 46.8756C28.597 47.5389 29.8066 47.4043 30.4695 46.5755C31.1325 45.7468 30.9983 44.5374 30.1693 43.8743C30.1693 43.8743 30.1693 43.8742 30.1692 43.8742L26.1859 40.6875L30.1692 37.5007C30.9983 36.8376 31.1325 35.6281 30.4695 34.7993ZM34.2508 49.6477L41.2821 33.2415C41.7003 32.2658 41.2482 31.136 40.2727 30.7179C39.2971 30.2998 38.1674 30.7517 37.7492 31.7272V31.7273L30.7179 48.1335C30.2997 49.1091 30.7518 50.239 31.7273 50.6571C32.7032 51.0754 33.8328 50.623 34.2508 49.6477ZM50.0911 39.1868L44.2318 34.4994L50.0912 42.1882C51.0529 41.419 51.0522 39.9555 50.0912 39.1868C50.0911 39.1868 50.0911 39.1868 50.0911 39.1868ZM16.75 52.4062V28.5469H55.25V52.4062C55.25 53.9306 54.0087 55.1719 52.4844 55.1719H19.5156C17.9913 55.1719 16.75 53.9306 16.75 52.4062Z" stroke="#E33C5C" stroke-width="1.5"/>
<path d="M52 29.5H20V52.5H52V29.5Z" fill="#FCEBEF"/>
<path fill-rule="evenodd" clip-rule="evenodd" d="M36 35.3333C32.3181 35.3333 29.3333 38.3181 29.3333 42C29.3333 45.6819 32.3181 48.6667 36 48.6667C39.6819 48.6667 42.6667 45.6819 42.6667 42C42.6667 38.3181 39.6819 35.3333 36 35.3333ZM28 42C28 37.5817 31.5817 34 36 34C40.4183 34 44 37.5817 44 42C44 46.4183 40.4183 50 36 50C31.5817 50 28 46.4183 28 42Z" fill="#E33C5C"/>
<path d="M34.6919 39V39.8617H33.5526V39.2154H33.3486C33.2752 39.2553 33.2652 39.2914 33.2551 39.359L33.4676 40.9468L33.3486 41.1383L33.1615 41.0106L33.2296 40.8989L33 39.3191C33.0054 39.1453 33.0582 39.0674 33.2891 39H34.6919Z" fill="#E33C5C"/>
<path d="M34.6919 40.1887H33.5612H33.5526V43.4281H34.6919V40.1887Z" fill="#E33C5C"/>
<path d="M34.6919 43.5399H33.5526V43.8032C33.7727 43.9034 33.8481 43.9945 33.8769 44.2341V44.4016H34.3676V44.2341C34.3985 44.0204 34.4722 43.9273 34.6919 43.8032V43.5399Z" fill="#E33C5C"/>
<path d="M34.3688 44.4653H33.8757V44.7685C33.9137 44.8724 33.9472 44.9238 34.0288 44.9999L34.3688 44.7207V44.4653Z" fill="#E33C5C"/>
<path d="M35.6187 39.8696V39.0159H38.7049V39.8696H37.6591V44.9999H36.6644V39.8696H35.6187Z" fill="#E33C5C"/>
</g>
<defs>
<clipPath id="clip0_2386_27198">
<rect width="72" height="72" fill="white"/>
</clipPath>
</defs>
</svg>
