<svg width="48" height="48" viewBox="0 0 48 48" fill="none" xmlns="http://www.w3.org/2000/svg">
<g clip-path="url(#clip0_2366_26762)">
<path d="M24 48C37.2548 48 48 37.2548 48 24C48 10.7452 37.2548 0 24 0C10.7452 0 0 10.7452 0 24C0 37.2548 10.7452 48 24 48Z" fill="#62CC73" fill-opacity="0.1"/>
<path d="M23.1922 29.6777L16.1212 22.6066C15.7306 22.2161 15.0975 22.2161 14.707 22.6066C14.3164 22.9972 14.3164 23.6303 14.707 24.0209L21.778 31.0919C22.1685 31.4824 22.8017 31.4824 23.1922 31.0919C23.5828 30.7014 23.5828 30.0682 23.1922 29.6777Z" fill="#62CC73"/>
<path d="M23.1922 31.0918L33.0917 21.1923C33.4822 20.8018 33.4822 20.1686 33.0917 19.7781C32.7012 19.3876 32.068 19.3876 31.6775 19.7781L21.778 29.6776C21.3875 30.0681 21.3875 30.7013 21.778 31.0918C22.1685 31.4824 22.8017 31.4824 23.1922 31.0918Z" fill="#62CC73"/>
</g>
<defs>
<clipPath id="clip0_2366_26762">
<rect width="48" height="48" fill="white"/>
</clipPath>
</defs>
</svg>
