<svg width="72" height="72" viewBox="0 0 72 72" fill="none" xmlns="http://www.w3.org/2000/svg">
<g clip-path="url(#clip0_2352_26469)">
<path d="M36 72C55.8823 72 72 55.8823 72 36C72 16.1177 55.8823 0 36 0C16.1177 0 0 16.1177 0 36C0 55.8823 16.1177 72 36 72Z" fill="#E33C5C" fill-opacity="0.1"/>
<path d="M38.8638 36.948H33.1311C32.6161 36.948 32.1985 37.3656 32.1985 37.8806V53.689C32.1985 53.8607 32.3377 53.9999 32.5094 53.9999H39.4856C39.6572 53.9999 39.7964 53.8607 39.7964 53.689V37.8806C39.7964 37.3656 39.3789 36.948 38.8638 36.948Z" fill="#E33C5C"/>
<path d="M48.3315 42.5593H42.5994C42.0843 42.5593 41.6667 42.9769 41.6667 43.492V53.6889C41.6667 53.8606 41.806 53.9998 41.9776 53.9998H48.9533C49.125 53.9998 49.2641 53.8606 49.2641 53.6889V43.492C49.2641 42.9769 48.8466 42.5593 48.3315 42.5593Z" fill="#E33C5C"/>
<path d="M29.4005 46.6792H23.6685C23.1534 46.6792 22.7358 47.0968 22.7358 47.6118V53.689C22.7358 53.8606 22.8751 53.9999 23.0467 53.9999H30.0223C30.194 53.9999 30.3332 53.8606 30.3332 53.689V47.6118C30.3332 47.0968 29.9156 46.6792 29.4005 46.6792Z" fill="#E33C5C"/>
<path fill-rule="evenodd" clip-rule="evenodd" d="M36 19.3333C32.3181 19.3333 29.3333 22.3181 29.3333 26C29.3333 29.6819 32.3181 32.6667 36 32.6667C39.6819 32.6667 42.6667 29.6819 42.6667 26C42.6667 22.3181 39.6819 19.3333 36 19.3333ZM28 26C28 21.5817 31.5817 18 36 18C40.4183 18 44 21.5817 44 26C44 30.4183 40.4183 34 36 34C31.5817 34 28 30.4183 28 26Z" fill="#E33C5C"/>
<path d="M34.6919 23V23.8617H33.5526V23.2154H33.3486C33.2752 23.2553 33.2652 23.2914 33.2551 23.359L33.4676 24.9468L33.3486 25.1383L33.1615 25.0106L33.2296 24.8989L33 23.3191C33.0054 23.1453 33.0582 23.0674 33.2891 23H34.6919Z" fill="#E33C5C"/>
<path d="M34.6919 24.1887H33.5612H33.5526V27.4281H34.6919V24.1887Z" fill="#E33C5C"/>
<path d="M34.6919 27.5399H33.5526V27.8032C33.7727 27.9034 33.8481 27.9945 33.8769 28.2341V28.4016H34.3676V28.2341C34.3985 28.0204 34.4722 27.9273 34.6919 27.8032V27.5399Z" fill="#E33C5C"/>
<path d="M34.3687 28.4653H33.8756V28.7685C33.9136 28.8724 33.9471 28.9238 34.0286 28.9999L34.3687 28.7207V28.4653Z" fill="#E33C5C"/>
<path d="M35.6187 23.8697V23.0159H38.7049V23.8697H37.6591V29H36.6644V23.8697H35.6187Z" fill="#E33C5C"/>
</g>
<defs>
<clipPath id="clip0_2352_26469">
<rect width="72" height="72" fill="white"/>
</clipPath>
</defs>
</svg>
